<svg xmlns="http://www.w3.org/2000/svg" width="1823.997" height="796.03" viewBox="0 0 1823.997 796.03"><g fill="#131427"><path opacity=".42" d="M0 531.026h63.261V652.29h24.965v-32.102h14.266l17.834-64.197 14.266 64.197h10.701v106.266h39.233v-99.129h39.231l35.667 53.498v61.031h28.488v-75.297h49.978v96.297h47.93V591.657h69.769v142.314h28.534v-78.115h17.831v-32.099h60.634v32.099h14.265v96.299h17.834v-43.53l46.001-46.001h28.9v-63.833h28.53v149.797h53.501v-231.83h60.632v228.268h24.965V577.391h28.535v57.067h24.966v53.498h35.666l28.535-110.565 14.268 106.998v57.067h57.064V641.59h39.233v42.799h21.394V566.69l41.022-41.016v265.713H0z"/><path opacity=".42" d="M1823.997 796.03H793.477V535.667h63.259v121.261h24.965v-32.099h14.267l17.835-64.2 14.269 64.2h10.7V731.09h39.229v-99.129h39.237l35.666 53.5v61.034h28.479v-75.301h49.987v96.299h47.927V596.297h69.767V738.61h28.536v-78.115h17.831v-32.099h60.635v32.099h14.267v96.298h17.832v-43.529l45.998-46h28.904V603.43h28.528v149.797h53.5v-231.83h60.635v228.264h24.965V582.03h28.532v57.066h24.969v53.498h35.666l28.536-110.564 14.264 106.998v57.068h57.064"/><path opacity=".42" d="M1817.716 734.489h-28.539v-78.117h-17.831v-32.098h-60.635v32.098h-14.267v96.3h-17.831v-43.529l-45.994-46.002h-28.909v-63.834h-28.528v149.797h-53.501v-231.83h-60.631V745.54h-24.968V577.905h-28.529v57.07h-24.969v53.496h-35.665l-28.536-110.566-14.264 107.002v57.066h-57.068v-99.867h-39.232v42.801h-21.402V567.206l-41.014-41.014v265.713h675.501M32.975 763.372h5.555V592.174h69.767v142.315h28.537v-78.117h17.831v-32.098H215.3v32.098h14.264v96.3h17.835v-43.529l45.997-46.002h28.901v-63.834h28.535v149.797h53.498v-231.83h60.633V745.54h24.965V577.905h28.534v57.07h24.967v53.496h35.663l28.538-110.566 14.264 107.002v57.066h57.066v-99.867h39.232v42.801h21.401V567.206l41.016-41.014v265.713H35.038"/></g><path opacity=".75" fill="#FFF" d="M1160.871 605.325h4.637v4.637h-4.637zm-185.49 96.867h4.637v4.639h-4.637zm219.496 21.641h4.637v4.639h-4.637zm6.18 40.187h4.641v4.637h-4.641zm22.669 4.125h4.637v4.639h-4.637zm14.433-24.732h4.636v4.637h-4.636zm76.255 30.914h4.641v4.639h-4.641zm35.04-32.975h4.637v4.637h-4.637zm154.575 16.486h4.637v4.635h-4.637zm16.482 10.307h4.64v4.639h-4.64zm59.774-35.037h4.637v4.637h-4.637zM935.19 743.411h4.637v4.637h-4.637z"/><path opacity=".51" fill="#FFF" d="M601.307 671.276h4.637v4.639h-4.637zm-346.251 47.402h4.639v4.639h-4.639zm6.186 0h4.635v4.639h-4.635zm6.181 0h4.639v4.639h-4.639zm6.182 0h4.639v4.639h-4.639zm-18.549 26.793h4.639v4.637h-4.639zm-107.171-72.135h4.639v4.635h-4.639zm12.367 0h4.635v4.635h-4.635zm0 12.364h4.635v4.639h-4.635zm-10.307 0h4.638v4.639h-4.638zm123.66 59.771h4.639v4.637h-4.639z"/><path opacity=".75" fill="#FFF" d="M1349.454 728.985h4.637v4.637h-4.637zm0-12.367h4.637v4.639h-4.637zm-154.577 31.945h4.637v4.639h-4.637zm21.641-21.637h4.637v4.633h-4.637zm0 21.637h4.637v4.639h-4.637zm-479.458 2.893h4.636v4.639h-4.636zm315.154-192.094h4.637v4.637h-4.637zm369.183-27.013h4.636v4.636h-4.636zm318.155 231.112h4.638v4.639h-4.638zm24.012-51.025h4.637v4.639h-4.637zM592.989 550.358h4.637v4.636h-4.637zm150.074-81.04h4.637v4.639h-4.637zM525.557 131.035h4.637v4.638h-4.637zm200.438 73.263h4.637v4.638h-4.637zM293.438 339.067h4.637v4.638h-4.637zm24.208-308.43h4.637v4.639h-4.637zm-141.847 178.3h4.637v4.639h-4.637zm198.197-38.893h4.637v4.638h-4.637zM489.771 0h4.637v4.639h-4.637zm280.987 311.144h4.637v4.639h-4.637zM529.421 368.01h4.637v4.638h-4.637zm69.571 44.282h4.637v4.637h-4.637zM85.739 526.344h4.639v4.639h-4.639zm1557.763-114.052h4.637v4.637h-4.637zm-1617.792 0h4.639v4.637H25.71zm942.462 309.15h4.637v4.637h-4.637zM8.612 691.426h4.637v4.637H8.612zm1756.971 36.022h4.637v4.637h-4.637zm-407.221-303.151h4.637v4.636h-4.637zm186.093 42.02h4.637v4.637h-4.637zm180.085 63.031h4.637v4.639h-4.637zm51.026-96.047h4.636v4.637h-4.636zM64.729 457.312h4.637v4.64h-4.637zm909.448 162.081h4.633v4.637h-4.633zm81.041 0h4.637v4.637h-4.637zm15.006 36.016h4.637v4.639h-4.637zm-18.01 39.019h4.637v4.639h-4.637zm27.011 15.006h4.641v4.639h-4.641zm-333.16 0h4.637v4.639h-4.637zm-42.021 6.004h4.636v4.637h-4.636zm678.332-102.05h4.64v4.638h-4.64zm-609.3 81.04h4.639v4.639h-4.639zm6.005-45.021h4.639v4.639h-4.639zm-21.009 6.002h4.637v4.637h-4.637zm111.053 75.035h4.638v4.637h-4.638zm834.408-6h4.637v4.635h-4.637zm81.157 0h4.633v4.635h-4.633zm-1058.696-59.35h4.638v4.637h-4.638zm-115.416-41.219h4.637v4.636h-4.637zm45.342 16.487h4.637v4.637h-4.637zm1036.692-57.708h4.637v4.638h-4.637zm83.465 2.059h4.64v4.639h-4.64zm-60.032 96.049h4.641v4.637h-4.641zM44.227 668.756h4.639v4.637h-4.639zm1736.489-5.722h4.637v4.637h-4.637zm-1441.68 59.769h4.639v4.637h-4.639zm-43.28-39.16h4.637v4.639h-4.637zm-84.501 14.428h4.637v4.637h-4.637zm4.121 49.465h4.639v4.637h-4.639zm-86.563-2.061h4.639v4.635h-4.639zM81.41 689.827h4.637v4.639H81.41zm1058.852 43.281h4.641v4.637h-4.641zm138.083-43.281h4.641v4.637h-4.641zm0 35.035h4.641v4.637h-4.641zm340.07-65.953h4.64v4.637h-4.64zM468.37 689.825h4.638v4.637h-4.638zm927.458-37.1h4.637v4.639h-4.637zm241.136-52.556h4.637v4.638h-4.637zm0 9.276h4.637v4.637h-4.637zm0 9.275h4.637v4.636h-4.637z"/><path opacity=".75" fill="#FFF" d="M1636.964 627.994h4.637v4.638h-4.637z"><animate attributeName="fill" from="#FFFFFF" to="#FFFF00" dur="2s" begin="0.2s" repeatCount="indefinite" fill="freeze" calcMode="discrete"/></path><path opacity=".75" fill="#FFF" d="M1636.964 637.268h4.637v4.639h-4.637z"><animate attributeName="fill" from="#FFFFFF" to="#FFFF00" dur="2s" begin="0.2s" repeatCount="indefinite" fill="freeze" calcMode="discrete"/></path><path opacity=".75" fill="#FFF" d="M1636.964 646.542h4.637v4.639h-4.637z"/><path opacity=".75" fill="#FFF" d="M1636.964 655.817h4.637v4.639h-4.637z"><animate attributeName="fill" from="#FFFFFF" to="#FFFF00" dur="2s" begin="0.2s" repeatCount="indefinite" fill="freeze" calcMode="discrete"/></path><path opacity=".75" fill="#FFF" d="M1636.964 665.092h4.637v4.637h-4.637z"><animate attributeName="fill" from="#FFFFFF" to="#FFFF00" dur="2s" begin="0.2s" repeatCount="indefinite" fill="freeze" calcMode="discrete"/></path><path opacity=".75" fill="#FFF" d="M1636.964 674.366h4.637v4.639h-4.637z"><animate attributeName="fill" from="#FFFFFF" to="#FFFF00" dur="2s" begin="0.2s" repeatCount="indefinite" fill="freeze" calcMode="discrete"/></path><path opacity=".75" fill="#FFF" d="M1636.964 683.641h4.637v4.639h-4.637zm0 9.274h4.637v4.639h-4.637zm0 9.275h4.637v4.639h-4.637zM742.483 599.141h4.638v4.637h-4.638zm-55.646 17.516h4.637v4.637h-4.637zm0 9.275h4.637v4.637h-4.637zm0 9.274h4.637v4.639h-4.637zm0 9.275h4.637v4.639h-4.637zm0 9.275h4.637v4.637h-4.637z"/><path opacity=".75" fill="#FFF" d="M686.837 663.03h4.637v4.639h-4.637z"><animate attributeName="fill" from="#FFFFFF" to="#FFFF00" dur="4.2s" begin="0.2s" repeatCount="indefinite" fill="freeze" calcMode="discrete"/></path><path opacity=".75" fill="#FFF" d="M686.837 672.305h4.637v4.639h-4.637z"><animate attributeName="fill" from="#FFFFFF" to="#FFFF00" dur="4.2s" begin="0.2s" repeatCount="indefinite" fill="freeze" calcMode="discrete"/></path><path opacity=".75" fill="#FFF" d="M686.837 681.579h4.637v4.639h-4.637z"/><path opacity=".75" fill="#FFF" d="M686.837 690.854h4.637v4.637h-4.637z"><animate attributeName="fill" from="#FFFFFF" to="#FFFF00" dur="4.2s" begin="0.2s" repeatCount="indefinite" fill="freeze" calcMode="discrete"/></path><path opacity=".75" fill="#FFF" d="M686.837 700.129h4.637v4.635h-4.637z"><animate attributeName="fill" from="#FFFFFF" to="#FFFF00" dur="4.2s" begin="0.2s" repeatCount="indefinite" fill="freeze" calcMode="discrete"/></path><path opacity=".75" fill="#FFF" d="M606.456 764.02h4.639v4.637h-4.639z"><animate attributeName="fill" from="#FFFFFF" to="#FFFF00" dur="4.2s" begin="0.2s" repeatCount="indefinite" fill="freeze" calcMode="discrete"/></path><path opacity=".75" fill="#FFF" d="M620.884 764.02h4.637v4.637h-4.637z"/><path opacity=".75" fill="#FFF" d="M620.884 774.327h4.637v4.639h-4.637z"><animate attributeName="fill" from="#FFFFFF" to="#FFFF00" dur="4.2s" begin="0.2s" repeatCount="indefinite" fill="freeze" calcMode="discrete"/></path><path opacity=".75" fill="#FFF" d="M808.435 753.717h4.639v4.637h-4.639zm12.366 0h4.637v4.637h-4.637zm70.076-55.648h4.637v4.639h-4.637zm14.425 0h4.636v4.639h-4.636zm0 14.426h4.636v4.637h-4.636zm-14.425 0h4.637v4.637h-4.637zm-204.04-3.092h4.637v4.637h-4.637zm0 9.273h4.637v4.639h-4.637zm-10.305-102.019h4.636v4.637h-4.636z"/><path opacity=".75" fill="#FFF" d="M676.532 625.932h4.636v4.637h-4.636z"><animate attributeName="fill" from="#FFFFFF" to="#FFFF00" dur="6s" begin="2s" repeatCount="indefinite" fill="freeze" calcMode="discrete"/></path><path opacity=".75" fill="#FFF" d="M676.532 635.206h4.636v4.639h-4.636z"><animate attributeName="fill" from="#FFFFFF" to="#FFFF00" dur="6s" begin="2s" repeatCount="indefinite" fill="freeze" calcMode="discrete"/></path><path opacity=".75" fill="#FFF" d="M676.532 644.481h4.636v4.639h-4.636z"><animate attributeName="fill" from="#FFFFFF" to="#FFFF00" dur="6s" begin="2s" repeatCount="indefinite" fill="freeze" calcMode="discrete"/></path><path opacity=".75" fill="#FFF" d="M676.532 653.756h4.636v4.637h-4.636z"><animate attributeName="fill" from="#FFFFFF" to="#FFFF00" dur="6s" begin="2s" repeatCount="indefinite" fill="freeze" calcMode="discrete"/></path><path opacity=".75" fill="#FFF" d="M676.532 663.03h4.636v4.639h-4.636zm0 9.275h4.636v4.639h-4.636z"/><path opacity=".75" fill="#FFF" d="M676.532 681.579h4.636v4.639h-4.636z"><animate attributeName="fill" from="#FFFFFF" to="#FFFF00" dur="6s" begin="2s" repeatCount="indefinite" fill="freeze" calcMode="discrete"/></path><path opacity=".75" fill="#FFF" d="M676.532 690.854h4.636v4.637h-4.636z"><animate attributeName="fill" from="#FFFFFF" to="#FFFF00" dur="6s" begin="2s" repeatCount="indefinite" fill="freeze" calcMode="discrete"/></path><path opacity=".75" fill="#FFF" d="M676.532 700.129h4.636v4.635h-4.636zm0 9.274h4.636v4.637h-4.636zm0 9.273h4.636v4.639h-4.636zm719.296-50.492h4.637v4.637h-4.637zm0 15.457h4.637v4.639h-4.637zm0 15.459h4.637v4.637h-4.637zm0 15.457h4.637v4.639h-4.637zM350.893 689.825h4.636v4.637h-4.636zm853.258-70.59h4.637v4.639h-4.637zm-1.543 38.642h4.637v4.639h-4.637zm30.913 6.186h4.638v4.637h-4.638zm4.638-52.557h4.636v4.639h-4.636zm0 12.368h4.636v4.637h-4.636z"/><g fill="#FFF"><path opacity=".75" d="M1473.108 538.083h4.637v4.637h-4.637z"><animate attributeName="fill" from="#FFFFFF" to="#ADD8E6" dur="3s" begin="0.9s" repeatCount="indefinite" fill="freeze" calcMode="discrete"/></path><path opacity=".75" d="M1487.54 538.083h4.637v4.637h-4.637z"/><path opacity=".75" d="M1494.756 538.083h4.636v4.637h-4.636z"><animate attributeName="fill" from="#FFFFFF" to="#FFFF00" dur="3s" begin="0.3s" repeatCount="indefinite" fill="freeze" calcMode="discrete"/></path><path opacity=".75" d="M1501.972 538.083h4.636v4.637h-4.636zm7.216 0h4.637v4.637h-4.637zm-36.08 9.275h4.637v4.638h-4.637z"/><path opacity=".75" d="M1480.324 547.358h4.637v4.638h-4.637z"><animate attributeName="fill" from="#FFFFFF" to="#ADD8E6" dur="3s" begin="0.9s" repeatCount="indefinite" fill="freeze" calcMode="discrete"/></path><path opacity=".75" d="M1487.54 547.358h4.637v4.638h-4.637z"><animate attributeName="fill" from="#FFFFFF" to="#ADD8E6" dur="3s" begin="0.9s" repeatCount="indefinite" fill="freeze" calcMode="discrete"/></path><path opacity=".75" d="M1494.756 547.358h4.636v4.638h-4.636z"/><path opacity=".75" d="M1501.972 547.358h4.636v4.638h-4.636z"><animate attributeName="fill" from="#FFFFFF" to="#FFFF00" dur="3s" begin="0.3s" repeatCount="indefinite" fill="freeze" calcMode="discrete"/></path><path opacity=".75" d="M1509.188 547.358h4.637v4.638h-4.637zm-21.648 8.502h4.637v4.637h-4.637zm7.216 0h4.636v4.637h-4.636zm14.432 0h4.637v4.637h-4.637z"/><path opacity=".75" d="M1473.108 564.362h4.637v4.635h-4.637z"><animate attributeName="fill" from="#FFFFFF" to="#ADD8E6" dur="3s" begin="0.9s" repeatCount="indefinite" fill="freeze" calcMode="discrete"/></path><path opacity=".75" d="M1480.324 564.362h4.637v4.635h-4.637z"/><path opacity=".75" d="M1494.756 564.362h4.636v4.635h-4.636z"><animate attributeName="fill" from="#FFFFFF" to="#FFFF00" dur="3s" begin="0.3s" repeatCount="indefinite" fill="freeze" calcMode="discrete"/></path><path opacity=".75" d="M1501.972 564.362h4.636v4.635h-4.636z"><animate attributeName="fill" from="#FFFFFF" to="#FFFF00" dur="3s" begin="0.3s" repeatCount="indefinite" fill="freeze" calcMode="discrete"/></path><path opacity=".75" d="M1509.188 564.362h4.637v4.635h-4.637zm-36.08 8.5h4.637v4.639h-4.637zm7.216 0h4.637v4.639h-4.637zm7.216 0h4.637v4.639h-4.637z"/><path opacity=".75" d="M1494.756 572.862h4.636v4.639h-4.636z"><animate attributeName="fill" from="#FFFFFF" to="#ADD8E6" dur="3s" begin="0.9s" repeatCount="indefinite" fill="freeze" calcMode="discrete"/></path><path opacity=".75" d="M1501.972 572.862h4.636v4.639h-4.636z"><animate attributeName="fill" from="#FFFFFF" to="#ADD8E6" dur="3s" begin="0.9s" repeatCount="indefinite" fill="freeze" calcMode="discrete"/></path><path opacity=".75" d="M1509.188 572.862h4.637v4.639h-4.637z"><animate attributeName="fill" from="#FFFFFF" to="#ADD8E6" dur="3s" begin="0.9s" repeatCount="indefinite" fill="freeze" calcMode="discrete"/></path><path opacity=".75" d="M1480.324 581.364h4.637v4.639h-4.637z"><animate attributeName="fill" from="#FFFFFF" to="#FFFF00" dur="3s" begin="0.3s" repeatCount="indefinite" fill="freeze" calcMode="discrete"/></path><path opacity=".75" d="M1494.756 581.364h4.636v4.639h-4.636z"><animate attributeName="fill" from="#FFFFFF" to="#FFFF00" dur="3s" begin="0.3s" repeatCount="indefinite" fill="freeze" calcMode="discrete"/></path><path opacity=".75" d="M1509.188 581.364h4.637v4.639h-4.637z"><animate attributeName="fill" from="#FFFFFF" to="#ADD8E6" dur="3s" begin="0.9s" repeatCount="indefinite" fill="freeze" calcMode="discrete"/></path><path opacity=".75" d="M1473.108 589.866h4.637v4.639h-4.637zm7.216 0h4.637v4.639h-4.637z"/><path opacity=".75" d="M1494.756 589.866h4.636v4.639h-4.636z"><animate attributeName="fill" from="#FFFFFF" to="#ADD8E6" dur="3s" begin="0.9s" repeatCount="indefinite" fill="freeze" calcMode="discrete"/></path><path opacity=".75" d="M1501.972 589.866h4.636v4.639h-4.636z"><animate attributeName="fill" from="#FFFFFF" to="#FFFF00" dur="3s" begin="0.3s" repeatCount="indefinite" fill="freeze" calcMode="discrete"/></path><path opacity=".75" d="M1509.188 589.866h4.637v4.639h-4.637zm-21.648 8.502h4.637v4.639h-4.637zm14.432 0h4.636v4.639h-4.636z"/><path opacity=".75" d="M1509.188 598.368h4.637v4.639h-4.637z"><animate attributeName="fill" from="#FFFFFF" to="#ADD8E6" dur="3s" begin="0.9s" repeatCount="indefinite" fill="freeze" calcMode="discrete"/></path><path opacity=".75" d="M1473.108 606.87h4.637v4.637h-4.637zm14.432 0h4.637v4.637h-4.637z"/><path opacity=".75" d="M1494.756 606.87h4.636v4.637h-4.636z"><animate attributeName="fill" from="#FFFFFF" to="#FFFF00" dur="3s" begin="0.3s" repeatCount="indefinite" fill="freeze" calcMode="discrete"/></path><path opacity=".75" d="M1501.972 606.87h4.636v4.637h-4.636z"><animate attributeName="fill" from="#FFFFFF" to="#FFFF00" dur="3s" begin="0.3s" repeatCount="indefinite" fill="freeze" calcMode="discrete"/></path><path opacity=".75" d="M1509.188 606.87h4.637v4.637h-4.637z"/><path opacity=".75" d="M1473.108 615.372h4.637v4.637h-4.637z"><animate attributeName="fill" from="#FFFFFF" to="#ADD8E6" dur="3s" begin="0.9s" repeatCount="indefinite" fill="freeze" calcMode="discrete"/></path><path opacity=".75" d="M1480.324 615.372h4.637v4.637h-4.637zm7.216 0h4.637v4.637h-4.637z"/><path opacity=".75" d="M1501.972 615.372h4.636v4.637h-4.636z"><animate attributeName="fill" from="#FFFFFF" to="#FFFF00" dur="3s" begin="0.3s" repeatCount="indefinite" fill="freeze" calcMode="discrete"/></path><path opacity=".75" d="M1509.188 615.372h4.637v4.637h-4.637z"/><path opacity=".75" d="M1487.54 623.874h4.637v4.637h-4.637z"><animate attributeName="fill" from="#FFFFFF" to="#ADD8E6" dur="3s" begin="0.9s" repeatCount="indefinite" fill="freeze" calcMode="discrete"/></path><path opacity=".75" d="M1501.972 623.874h4.636v4.637h-4.636z"><animate attributeName="fill" from="#FFFFFF" to="#ADD8E6" dur="3s" begin="0.9s" repeatCount="indefinite" fill="freeze" calcMode="discrete"/></path><path opacity=".75" d="M1509.188 623.874h4.637v4.637h-4.637zm-36.08 8.501h4.637v4.637h-4.637zm14.432 0h4.637v4.637h-4.637zm7.216 0h4.636v4.637h-4.636z"/><path opacity=".75" d="M1501.972 632.375h4.636v4.637h-4.636z"><animate attributeName="fill" from="#FFFFFF" to="#ADD8E6" dur="3s" begin="0.9s" repeatCount="indefinite" fill="freeze" calcMode="discrete"/></path><path opacity=".75" d="M1509.188 632.375h4.637v4.637h-4.637z"><animate attributeName="fill" from="#FFFFFF" to="#FFFF00" dur="3s" begin="0.3s" repeatCount="indefinite" fill="freeze" calcMode="discrete"/></path><path opacity=".75" d="M1480.324 640.877h4.637v4.636h-4.637zm28.864 0h4.637v4.636h-4.637z"/><path opacity=".75" d="M1473.108 649.378h4.637v4.636h-4.637z"><animate attributeName="fill" from="#FFFFFF" to="#ADD8E6" dur="3s" begin="0.9s" repeatCount="indefinite" fill="freeze" calcMode="discrete"/></path><path opacity=".75" d="M1480.324 649.378h4.637v4.636h-4.637zm7.216 0h4.637v4.636h-4.637z"/><path opacity=".75" d="M1494.756 649.378h4.636v4.636h-4.636z"><animate attributeName="fill" from="#FFFFFF" to="#FFFF00" dur="3s" begin="0.9s" repeatCount="indefinite" fill="freeze" calcMode="discrete"/></path><path opacity=".75" d="M1509.188 649.378h4.637v4.636h-4.637z"><animate attributeName="fill" from="#FFFFFF" to="#FFFF00" dur="3s" begin="0.3s" repeatCount="indefinite" fill="freeze" calcMode="discrete"/></path><path opacity=".75" d="M1473.108 657.877h4.637v4.639h-4.637zm14.432 0h4.637v4.639h-4.637zm7.216 0h4.636v4.639h-4.636z"/><path opacity=".75" d="M1501.972 657.877h4.636v4.639h-4.636z"><animate attributeName="fill" from="#FFFFFF" to="#ADD8E6" dur="3s" begin="0.9s" repeatCount="indefinite" fill="freeze" calcMode="discrete"/></path><path opacity=".75" d="M1509.188 657.877h4.637v4.639h-4.637zm-36.08 8.502h4.637v4.639h-4.637z"/><path opacity=".75" d="M1487.54 666.379h4.637v4.639h-4.637z"><animate attributeName="fill" from="#FFFFFF" to="#FFFF00" dur="3s" begin="0.3s" repeatCount="indefinite" fill="freeze" calcMode="discrete"/></path><path opacity=".75" d="M1501.972 666.379h4.636v4.639h-4.636z"><animate attributeName="fill" from="#FFFFFF" to="#FFFF00" dur="3s" begin="0.3s" repeatCount="indefinite" fill="freeze" calcMode="discrete"/></path><path opacity=".75" d="M1480.324 674.881h4.637v4.639h-4.637z"><animate attributeName="fill" from="#FFFFFF" to="#FFFF00" dur="3s" begin="0.3s" repeatCount="indefinite" fill="freeze" calcMode="discrete"/></path><path opacity=".75" d="M1487.54 674.881h4.637v4.639h-4.637zm7.216 0h4.636v4.639h-4.636zm7.216 0h4.636v4.639h-4.636zm7.216 0h4.637v4.639h-4.637zm-36.08 8.504h4.637v4.637h-4.637z"/><path opacity=".75" d="M1494.756 683.385h4.636v4.637h-4.636z"><animate attributeName="fill" from="#FFFFFF" to="#ADD8E6" dur="3s" begin="0.9s" repeatCount="indefinite" fill="freeze" calcMode="discrete"/></path><path opacity=".75" d="M1509.188 683.385h4.637v4.637h-4.637zm-36.08 8.502h4.637v4.635h-4.637z"/><path opacity=".75" d="M1480.324 691.887h4.637v4.635h-4.637z"><animate attributeName="fill" from="#FFFFFF" to="#FFFF00" dur="3s" begin="0.3s" repeatCount="indefinite" fill="freeze" calcMode="discrete"/></path><path opacity=".75" d="M1494.756 691.887h4.636v4.635h-4.636z"><animate attributeName="fill" from="#FFFFFF" to="#FFFF00" dur="3s" begin="0.3s" repeatCount="indefinite" fill="freeze" calcMode="discrete"/></path><path opacity=".75" d="M1501.972 691.887h4.636v4.635h-4.636zm7.216 0h4.637v4.635h-4.637z"/><path opacity=".75" d="M1473.108 700.387h4.637v4.637h-4.637z"><animate attributeName="fill" from="#FFFFFF" to="#ADD8E6" dur="3s" begin="0.9s" repeatCount="indefinite" fill="freeze" calcMode="discrete"/></path><path opacity=".75" d="M1480.324 700.387h4.637v4.637h-4.637z"><animate attributeName="fill" from="#FFFFFF" to="#ADD8E6" dur="3s" begin="0.9s" repeatCount="indefinite" fill="freeze" calcMode="discrete"/></path><path opacity=".75" d="M1487.54 700.387h4.637v4.637h-4.637zm7.216 0h4.636v4.637h-4.636z"/><path opacity=".75" d="M1501.972 700.387h4.636v4.637h-4.636z"><animate attributeName="fill" from="#FFFFFF" to="#FFFF00" dur="3s" begin="0.9s" repeatCount="indefinite" fill="freeze" calcMode="discrete"/></path><path opacity=".75" d="M1487.54 708.889h4.637v4.637h-4.637z"><animate attributeName="fill" from="#FFFFFF" to="#FFFF00" dur="3s" begin="0.9s" repeatCount="indefinite" fill="freeze" calcMode="discrete"/></path><path opacity=".75" d="M1501.972 708.889h4.636v4.637h-4.636zm7.216 0h4.637v4.637h-4.637z"/></g><g fill="#FFF"><path opacity=".75" d="M1590.583 538.083h4.64v4.637h-4.64z"><animate attributeName="fill" from="#FFFFFF" to="#FFFF00" dur="4s" begin="0.8s" repeatCount="indefinite" fill="freeze" calcMode="discrete"/></path><path opacity=".75" d="M1576.155 538.083h4.637v4.637h-4.637z"/><path opacity=".75" d="M1568.939 538.083h4.641v4.637h-4.641z"><animate attributeName="fill" from="#FFFFFF" to="#FFFF00" dur="4s" begin="0.8s" repeatCount="indefinite" fill="freeze" calcMode="discrete"/></path><path opacity=".75" d="M1561.723 538.083h4.641v4.637h-4.641z"><animate attributeName="fill" from="#FFFFFF" to="#ADD8E6" dur="3s" begin="0.8s" repeatCount="indefinite" fill="freeze" calcMode="discrete"/></path><path opacity=".75" d="M1554.507 538.083h4.641v4.637h-4.641z"/><path opacity=".75" d="M1590.583 547.358h4.64v4.638h-4.64z"><animate attributeName="fill" from="#FFFFFF" to="#ADD8E6" dur="3s" begin="0.8s" repeatCount="indefinite" fill="freeze" calcMode="discrete"/></path><path opacity=".75" d="M1583.371 547.358h4.637v4.638h-4.637z"/><path opacity=".75" d="M1576.155 547.358h4.637v4.638h-4.637z"><animate attributeName="fill" from="#FFFFFF" to="#FFFF00" dur="4s" begin="0.8s" repeatCount="indefinite" fill="freeze" calcMode="discrete"/></path><path opacity=".75" d="M1568.939 547.358h4.641v4.638h-4.641z"><animate attributeName="fill" from="#FFFFFF" to="#FFFF00" dur="4s" begin="0.8s" repeatCount="indefinite" fill="freeze" calcMode="discrete"/></path><path opacity=".75" d="M1561.723 547.358h4.641v4.638h-4.641z"/><path opacity=".75" d="M1554.507 547.358h4.641v4.638h-4.641z"><animate attributeName="fill" from="#FFFFFF" to="#ADD8E6" dur="3s" begin="0.8s" repeatCount="indefinite" fill="freeze" calcMode="discrete"/></path><path opacity=".75" d="M1576.155 555.86h4.637v4.637h-4.637zm-7.216 0h4.641v4.637h-4.641zm-14.432 0h4.641v4.637h-4.641z"/><path opacity=".75" d="M1590.583 564.362h4.64v4.635h-4.64z"><animate attributeName="fill" from="#FFFFFF" to="#FFFF00" dur="4s" begin="0.8s" repeatCount="indefinite" fill="freeze" calcMode="discrete"/></path><path opacity=".75" d="M1583.371 564.362h4.637v4.635h-4.637zm-14.432 0h4.641v4.635h-4.641z"/><path opacity=".75" d="M1561.723 564.362h4.641v4.635h-4.641z"><animate attributeName="fill" from="#FFFFFF" to="#FFFF00" dur="4s" begin="0.8s" repeatCount="indefinite" fill="freeze" calcMode="discrete"/></path><path opacity=".75" d="M1554.507 564.362h4.641v4.635h-4.641z"/><path opacity=".75" d="M1590.583 572.862h4.64v4.639h-4.64z"><animate attributeName="fill" from="#FFFFFF" to="#ADD8E6" dur="3s" begin="0.8s" repeatCount="indefinite" fill="freeze" calcMode="discrete"/></path><path opacity=".75" d="M1583.371 572.862h4.637v4.639h-4.637z"><animate attributeName="fill" from="#FFFFFF" to="#FFFF00" dur="4s" begin="0.8s" repeatCount="indefinite" fill="freeze" calcMode="discrete"/></path><path opacity=".75" d="M1576.155 572.862h4.637v4.639h-4.637zm-7.216 0h4.641v4.639h-4.641z"/><path opacity=".75" d="M1561.723 572.862h4.641v4.639h-4.641z"><animate attributeName="fill" from="#FFFFFF" to="#ADD8E6" dur="3s" begin="0.8s" repeatCount="indefinite" fill="freeze" calcMode="discrete"/></path><path opacity=".75" d="M1554.507 572.862h4.641v4.639h-4.641z"><animate attributeName="fill" from="#FFFFFF" to="#ADD8E6" dur="3s" begin="0.8s" repeatCount="indefinite" fill="freeze" calcMode="discrete"/></path><path opacity=".75" d="M1583.371 581.364h4.637v4.639h-4.637zm-14.432 0h4.641v4.639h-4.641zm-14.432 0h4.641v4.639h-4.641z"/><path opacity=".75" d="M1590.583 589.866h4.64v4.639h-4.64z"><animate attributeName="fill" from="#FFFFFF" to="#FFFF00" dur="4s" begin="0.8s" repeatCount="indefinite" fill="freeze" calcMode="discrete"/></path><path opacity=".75" d="M1583.371 589.866h4.637v4.639h-4.637zm-14.432 0h4.641v4.639h-4.641zm-7.216 0h4.641v4.639h-4.641zm-7.216 0h4.641v4.639h-4.641zm21.648 8.502h4.637v4.639h-4.637z"/><path opacity=".75" d="M1561.723 598.368h4.641v4.639h-4.641z"><animate attributeName="fill" from="#FFFFFF" to="#ADD8E6" dur="3s" begin="0.8s" repeatCount="indefinite" fill="freeze" calcMode="discrete"/></path><path opacity=".75" d="M1554.507 598.368h4.641v4.639h-4.641zm36.076 8.502h4.64v4.637h-4.64zm-14.428 0h4.637v4.637h-4.637z"/><path opacity=".75" d="M1568.939 606.87h4.641v4.637h-4.641z"><animate attributeName="fill" from="#FFFFFF" to="#FFFF00" dur="4s" begin="0.8s" repeatCount="indefinite" fill="freeze" calcMode="discrete"/></path><path opacity=".75" d="M1561.723 606.87h4.641v4.637h-4.641z"><animate attributeName="fill" from="#FFFFFF" to="#FFFF00" dur="4s" begin="0.8s" repeatCount="indefinite" fill="freeze" calcMode="discrete"/></path><path opacity=".75" d="M1554.507 606.87h4.641v4.637h-4.641z"><animate attributeName="fill" from="#FFFFFF" to="#FFFF00" dur="4s" begin="0.8s" repeatCount="indefinite" fill="freeze" calcMode="discrete"/></path><path opacity=".75" d="M1590.583 615.372h4.64v4.637h-4.64z"/><path opacity=".75" d="M1583.371 615.372h4.637v4.637h-4.637z"><animate attributeName="fill" from="#FFFFFF" to="#ADD8E6" dur="3s" begin="0.8s" repeatCount="indefinite" fill="freeze" calcMode="discrete"/></path><path opacity=".75" d="M1576.155 615.372h4.637v4.637h-4.637z"><animate attributeName="fill" from="#FFFFFF" to="#ADD8E6" dur="3s" begin="0.8s" repeatCount="indefinite" fill="freeze" calcMode="discrete"/></path><path opacity=".75" d="M1561.723 615.372h4.641v4.637h-4.641zm-7.216 0h4.641v4.637h-4.641zm21.648 8.502h4.637v4.637h-4.637zm-14.432 0h4.641v4.637h-4.641z"/><path opacity=".75" d="M1554.507 623.874h4.641v4.637h-4.641z"><animate attributeName="fill" from="#FFFFFF" to="#FFFF00" dur="4s" begin="0.8s" repeatCount="indefinite" fill="freeze" calcMode="discrete"/></path><path opacity=".75" d="M1590.583 632.375h4.64v4.637h-4.64zm-14.428 0h4.637v4.637h-4.637z"/><path opacity=".75" d="M1568.939 632.375h4.641v4.637h-4.641z"><animate attributeName="fill" from="#FFFFFF" to="#ADD8E6" dur="3s" begin="0.8s" repeatCount="indefinite" fill="freeze" calcMode="discrete"/></path><path opacity=".75" d="M1561.723 632.375h4.641v4.637h-4.641zm-7.216 0h4.641v4.637h-4.641zm28.864 8.502h4.637v4.636h-4.637z"/><path opacity=".75" d="M1554.507 640.877h4.641v4.636h-4.641z"><animate attributeName="fill" from="#FFFFFF" to="#FFFF00" dur="4s" begin="0.8s" repeatCount="indefinite" fill="freeze" calcMode="discrete"/></path><path opacity=".75" d="M1590.583 649.378h4.64v4.636h-4.64z"><animate attributeName="fill" from="#FFFFFF" to="#FFFF00" dur="4s" begin="0.8s" repeatCount="indefinite" fill="freeze" calcMode="discrete"/></path><path opacity=".75" d="M1583.371 649.378h4.637v4.636h-4.637z"/><path opacity=".75" d="M1576.155 649.378h4.637v4.636h-4.637z"><animate attributeName="fill" from="#FFFFFF" to="#ADD8E6" dur="3s" begin="0.8s" repeatCount="indefinite" fill="freeze" calcMode="discrete"/></path><path opacity=".75" d="M1568.939 649.378h4.641v4.636h-4.641z"><animate attributeName="fill" from="#FFFFFF" to="#ADD8E6" dur="3s" begin="0.8s" repeatCount="indefinite" fill="freeze" calcMode="discrete"/></path><path opacity=".75" d="M1554.507 649.378h4.641v4.636h-4.641z"><animate attributeName="fill" from="#FFFFFF" to="#ADD8E6" dur="3s" begin="0.8s" repeatCount="indefinite" fill="freeze" calcMode="discrete"/></path><path opacity=".75" d="M1590.583 657.877h4.64v4.639h-4.64zm-14.428 0h4.637v4.639h-4.637zm-7.216 0h4.641v4.639h-4.641z"/><path opacity=".75" d="M1561.723 657.877h4.641v4.639h-4.641z"><animate attributeName="fill" from="#FFFFFF" to="#FFFF00" dur="4s" begin="0.8s" repeatCount="indefinite" fill="freeze" calcMode="discrete"/></path><path opacity=".75" d="M1554.507 657.877h4.641v4.639h-4.641z"><animate attributeName="fill" from="#FFFFFF" to="#ADD8E6" dur="3s" begin="0.8s" repeatCount="indefinite" fill="freeze" calcMode="discrete"/></path><path opacity=".75" d="M1590.583 666.379h4.64v4.639h-4.64z"/><path opacity=".75" d="M1576.155 666.379h4.637v4.639h-4.637z"><animate attributeName="fill" from="#FFFFFF" to="#FFFF00" dur="4s" begin="0.8s" repeatCount="indefinite" fill="freeze" calcMode="discrete"/></path><path opacity=".75" d="M1561.723 666.379h4.641v4.639h-4.641z"/><path opacity=".75" d="M1583.371 674.881h4.637v4.639h-4.637z"><animate attributeName="fill" from="#FFFFFF" to="#ADD8E6" dur="3s" begin="0.8s" repeatCount="indefinite" fill="freeze" calcMode="discrete"/></path><path opacity=".75" d="M1576.155 674.881h4.637v4.639h-4.637zm-7.216 0h4.641v4.639h-4.641zm-7.216 0h4.641v4.639h-4.641z"/><path opacity=".75" d="M1554.507 674.881h4.641v4.639h-4.641z"><animate attributeName="fill" from="#FFFFFF" to="#FFFF00" dur="4s" begin="0.8s" repeatCount="indefinite" fill="freeze" calcMode="discrete"/></path><path opacity=".75" d="M1590.583 683.385h4.64v4.637h-4.64zm-21.644 0h4.641v4.637h-4.641z"/><path opacity=".75" d="M1554.507 683.385h4.641v4.637h-4.641z"><animate attributeName="fill" from="#FFFFFF" to="#ADD8E6" dur="4s" begin="0.8s" repeatCount="indefinite" fill="freeze" calcMode="discrete"/></path><path opacity=".75" d="M1590.583 691.887h4.64v4.635h-4.64z"><animate attributeName="fill" from="#FFFFFF" to="#ADD8E6" dur="3s" begin="0.8s" repeatCount="indefinite" fill="freeze" calcMode="discrete"/></path><path opacity=".75" d="M1583.371 691.887h4.637v4.635h-4.637z"><animate attributeName="fill" from="#FFFFFF" to="#ADD8E6" dur="4s" begin="0.8s" repeatCount="indefinite" fill="freeze" calcMode="discrete"/></path><path opacity=".75" d="M1568.939 691.887h4.641v4.635h-4.641z"><animate attributeName="fill" from="#FFFFFF" to="#ADD8E6" dur="3s" begin="0.8s" repeatCount="indefinite" fill="freeze" calcMode="discrete"/></path><path opacity=".75" d="M1561.723 691.887h4.641v4.635h-4.641zm-7.216 0h4.641v4.635h-4.641z"/><path opacity=".75" d="M1590.583 700.387h4.64v4.637h-4.64z"><animate attributeName="fill" from="#FFFFFF" to="#FFFF00" dur="4s" begin="0.8s" repeatCount="indefinite" fill="freeze" calcMode="discrete"/></path><path opacity=".75" d="M1583.371 700.387h4.637v4.637h-4.637z"/><path opacity=".75" d="M1576.155 700.387h4.637v4.637h-4.637z"><animate attributeName="fill" from="#FFFFFF" to="#ADD8E6" dur="3s" begin="0.8s" repeatCount="indefinite" fill="freeze" calcMode="discrete"/></path><path opacity=".75" d="M1568.939 700.387h4.641v4.637h-4.641z"/><path opacity=".75" d="M1561.723 700.387h4.641v4.637h-4.641z"><animate attributeName="fill" from="#FFFFFF" to="#ADD8E6" dur="3s" begin="0.8s" repeatCount="indefinite" fill="freeze" calcMode="discrete"/></path><path opacity=".75" d="M1576.155 708.889h4.637v4.637h-4.637z"><animate attributeName="fill" from="#FFFFFF" to="#ADD8E6" dur="3s" begin="0.8s" repeatCount="indefinite" fill="freeze" calcMode="discrete"/></path><path opacity=".75" d="M1561.723 708.889h4.641v4.637h-4.641zm-7.216 0h4.641v4.637h-4.641z"/></g><path opacity=".75" fill="#FFF" d="M1023.306 643.135h4.64v4.639h-4.64zm-14.429 0h4.637v4.639h-4.637zm-7.215 0h4.637v4.639h-4.637zm-7.216 0h4.641v4.639h-4.641zm-7.216 0h4.641v4.639h-4.641zm36.076 9.276h4.64v4.639h-4.64zm-7.216 0h4.64v4.639h-4.64zm-7.213 0h4.637v4.639h-4.637zm-7.215 0h4.637v4.639h-4.637zm-7.216 0h4.641v4.639h-4.641zm-7.216 0h4.641v4.639h-4.641zm21.647 8.502h4.637v4.637h-4.637zm-7.215 0h4.637v4.637h-4.637zm-14.432 0h4.641v4.637h-4.641zm36.076 8.502h4.64v4.637h-4.64zm-7.216 0h4.64v4.637h-4.64zm-14.428 0h4.637v4.637h-4.637zm-7.216 0h4.641v4.637h-4.641zm-7.216 0h4.641v4.637h-4.641zm36.076 8.502h4.64v4.637h-4.64zm-7.216 0h4.64v4.637h-4.64zm-7.213 0h4.637v4.637h-4.637zm-7.215 0h4.637v4.637h-4.637zm-7.216 0h4.641v4.637h-4.641zm-7.216 0h4.641v4.637h-4.641zm28.86 8.501h4.64v4.637h-4.64zm-14.428 0h4.637v4.637h-4.637zm-14.432 0h4.641v4.637h-4.641zm36.076 8.502h4.64v4.637h-4.64zm-7.216 0h4.64v4.637h-4.64zm-14.428 0h4.637v4.637h-4.637zm-7.216 0h4.641v4.637h-4.641zm-7.216 0h4.641v4.637h-4.641zm21.647 8.502h4.637v4.635h-4.637zm-14.431 0h4.641v4.635h-4.641zm-7.216 0h4.641v4.635h-4.641zm36.076 8.498h4.64v4.639h-4.64zm-14.429 0h4.637v4.639h-4.637zm-7.215 0h4.637v4.639h-4.637zm-7.216 0h4.641v4.639h-4.641zm-7.216 0h4.641v4.639h-4.641zm36.076 8.504h4.64v4.637h-4.64zm-7.216 0h4.64v4.637h-4.64zm-7.213 0h4.637v4.637h-4.637zm-14.431 0h4.641v4.637h-4.641zm-7.216 0h4.641v4.637h-4.641zm21.647 8.5h4.637v4.639h-4.637zm-14.431 0h4.641v4.639h-4.641zm-7.216 0h4.641v4.639h-4.641zm36.076 8.502h4.64v4.639h-4.64zm-14.429 0h4.637v4.639h-4.637zm-7.215 0h4.637v4.639h-4.637zm-7.216 0h4.641v4.639h-4.641zm-7.216 0h4.641v4.639h-4.641zm28.86 8.504h4.64v4.635h-4.64zm-28.86 0h4.641v4.635h-4.641zm36.076 8.5h4.64v4.637h-4.64zm-7.216 0h4.64v4.637h-4.64zm-7.213 0h4.637v4.637h-4.637zm-7.215 0h4.637v4.637h-4.637zm-14.432 0h4.641v4.637h-4.641zm36.076 8.502h4.64v4.637h-4.64zm-14.429 0h4.637v4.637h-4.637zm-7.215 0h4.637v4.637h-4.637zm-7.216 0h4.641v4.637h-4.641zm-7.216 0h4.641v4.637h-4.641zm-667.266-76.457h4.638v4.639h-4.638zm-7.214 0h4.637v4.639h-4.637zm-7.216 0h4.637v4.639h-4.637zm14.43 9.275h4.638v4.637h-4.638zm-7.214 0h4.637v4.637h-4.637zm-7.216 0h4.637v4.637h-4.637zm14.43 8.5h4.638v4.639h-4.638zm-14.43 0h4.637v4.639h-4.637zm14.43 8.504h4.638v4.637h-4.638zm-7.214 0h4.637v4.637h-4.637zm-7.216 0h4.637v4.637h-4.637zm14.43 8.502h4.638v4.637h-4.638zm-7.214 0h4.637v4.637h-4.637zm-7.216 0h4.637v4.637h-4.637zm14.43 8.502h4.638v4.637h-4.638zm-14.43 0h4.637v4.637h-4.637zm14.43 8.502h4.638v4.635h-4.638zm-7.214 0h4.637v4.635h-4.637zm-7.216 0h4.637v4.635h-4.637zm7.216 8.5h4.637v4.639h-4.637zm-7.216 0h4.637v4.639h-4.637zm14.43 8.502h4.638v4.639h-4.638zm-7.214 0h4.637v4.639h-4.637zm-7.216 0h4.637v4.639h-4.637zm7.216 8.502h4.637v4.639h-4.637zm-7.216 0h4.637v4.639h-4.637zm7.216 8.502h4.637v4.637h-4.637zm-7.216 0h4.637v4.637h-4.637zm787.322-186.779h4.637v4.639h-4.637z"/><path opacity=".75" fill="#FFF" d="M1100.072 585.487h4.637v4.639h-4.637z"><animate attributeName="fill" from="#FFFFFF" to="#ADD8E6" dur="2s" begin="0.5s" repeatCount="indefinite" fill="freeze" calcMode="discrete"/></path><path opacity=".75" fill="#FFF" d="M1107.288 585.487h4.637v4.639h-4.637zm-14.432 9.274h4.637v4.639h-4.637z"/><path opacity=".75" fill="#FFF" d="M1100.072 594.761h4.637v4.639h-4.637z"><animate attributeName="fill" from="#FFFFFF" to="#ADD8E6" dur="2s" begin="0.5s" repeatCount="indefinite" fill="freeze" calcMode="discrete"/></path><path opacity=".75" fill="#FFF" d="M1107.288 594.761h4.637v4.639h-4.637zm-14.432 8.502h4.637v4.637h-4.637z"/><path opacity=".75" fill="#FFF" d="M1107.288 603.263h4.637v4.637h-4.637z"><animate attributeName="fill" from="#FFFFFF" to="#ADD8E6" dur="2s" begin="0.5s" repeatCount="indefinite" fill="freeze" calcMode="discrete"/></path><path opacity=".75" fill="#FFF" d="M1092.856 611.765h4.637v4.637h-4.637zm7.216 0h4.637v4.637h-4.637zm7.216 0h4.637v4.637h-4.637z"/><path opacity=".75" fill="#FFF" d="M1092.856 620.267h4.637v4.637h-4.637z"><animate attributeName="fill" from="#FFFFFF" to="#ADD8E6" dur="2s" begin="0.5s" repeatCount="indefinite" fill="freeze" calcMode="discrete"/></path><path opacity=".75" fill="#FFF" d="M1100.072 620.267h4.637v4.637h-4.637z"><animate attributeName="fill" from="#FFFFFF" to="#ADD8E6" dur="2s" begin="0.5s" repeatCount="indefinite" fill="freeze" calcMode="discrete"/></path><path opacity=".75" fill="#FFF" d="M1107.288 620.267h4.637v4.637h-4.637zm-14.432 8.501h4.637v4.637h-4.637zm14.432 0h4.637v4.637h-4.637zm-14.432 8.502h4.637v4.637h-4.637zm7.216 0h4.637v4.637h-4.637z"/><path opacity=".75" fill="#FFF" d="M1107.288 637.27h4.637v4.637h-4.637z"><animate attributeName="fill" from="#FFFFFF" to="#ADD8E6" dur="2s" begin="0.5s" repeatCount="indefinite" fill="freeze" calcMode="discrete"/></path><path opacity=".75" fill="#FFF" d="M1100.072 645.772h4.637v4.637h-4.637zm7.216 0h4.637v4.637h-4.637z"/><path opacity=".75" fill="#FFF" d="M1092.856 654.272h4.637v4.639h-4.637z"><animate attributeName="fill" from="#FFFFFF" to="#ADD8E6" dur="2s" begin="0.5s" repeatCount="indefinite" fill="freeze" calcMode="discrete"/></path><path opacity=".75" fill="#FFF" d="M1100.072 654.272h4.637v4.639h-4.637z"><animate attributeName="fill" from="#FFFFFF" to="#FFFF00" dur="2s" begin="0.5s" repeatCount="indefinite" fill="freeze" calcMode="discrete"/></path><path opacity=".75" fill="#FFF" d="M1107.288 654.272h4.637v4.639h-4.637z"/><path opacity=".75" fill="#FFF" d="M1100.072 662.774h4.637v4.639h-4.637z"><animate attributeName="fill" from="#FFFFFF" to="#ADD8E6" dur="2s" begin="0.5s" repeatCount="indefinite" fill="freeze" calcMode="discrete"/></path><path opacity=".75" fill="#FFF" d="M1107.288 662.774h4.637v4.639h-4.637z"><animate attributeName="fill" from="#FFFFFF" to="#ADD8E6" dur="2s" begin="0.5s" repeatCount="indefinite" fill="freeze" calcMode="discrete"/></path><path opacity=".75" fill="#FFF" d="M1100.072 671.276h4.637v4.639h-4.637zm7.216 0h4.637v4.639h-4.637zm-14.432 8.504h4.637v4.637h-4.637z"/><path opacity=".75" fill="#FFF" d="M1100.072 679.78h4.637v4.637h-4.637z"><animate attributeName="fill" from="#FFFFFF" to="#FFFF00" dur="2s" begin="0.5s" repeatCount="indefinite" fill="freeze" calcMode="discrete"/></path><path opacity=".75" fill="#FFF" d="M1107.288 679.78h4.637v4.637h-4.637z"/><path opacity=".75" fill="#FFF" d="M1107.288 688.282h4.637v4.635h-4.637z"><animate attributeName="fill" from="#FFFFFF" to="#ADD8E6" dur="2s" begin="0.5s" repeatCount="indefinite" fill="freeze" calcMode="discrete"/></path><path opacity=".75" fill="#FFF" d="M1092.856 696.782h4.637v4.637h-4.637z"><animate attributeName="fill" from="#FFFFFF" to="#ADD8E6" dur="2s" begin="0.5s" repeatCount="indefinite" fill="freeze" calcMode="discrete"/></path><path opacity=".75" fill="#FFF" d="M1107.288 696.782h4.637v4.637h-4.637zm-14.432 8.502h4.637v4.637h-4.637zm7.216 0h4.637v4.637h-4.637zm7.216 0h4.637v4.637h-4.637zm-7.216 8.502h4.637v4.639h-4.637z"/><path opacity=".75" fill="#FFF" d="M1092.856 722.288h4.637v4.639h-4.637z"><animate attributeName="fill" from="#FFFFFF" to="#ADD8E6" dur="2s" begin="0.5s" repeatCount="indefinite" fill="freeze" calcMode="discrete"/></path><path opacity=".75" fill="#FFF" d="M1100.072 722.288h4.637v4.639h-4.637zm7.216 0h4.637v4.639h-4.637zm-14.432 8.502h4.637v4.635h-4.637zm14.432 0h4.637v4.635h-4.637zm-14.432 8.498h4.637v4.641h-4.637zm7.216 0h4.637v4.641h-4.637zm7.216 0h4.637v4.641h-4.637zm-14.432 8.504h4.637v4.637h-4.637zm7.216 0h4.637v4.637h-4.637zm0 8.5h4.637v4.637h-4.637zm7.216 0h4.637v4.637h-4.637z"/><path opacity=".42" fill="#FFF" d="M806.886 563.848h4.123v177.244h-4.123zm8.245 0h4.122v177.244h-4.122zm8.246 0h4.123v177.244h-4.123zm8.245 0h4.122v177.244h-4.122zm-416.328 43.313h35.038v4.057h-35.038z"/><path opacity=".42" fill="#FFF" d="M415.294 615.407h35.038v4.055h-35.038z"><animate attributeName="fill" from="#FFFFFF" to="#FFFF00" dur="5s" begin="0.8s" repeatCount="indefinite" fill="freeze" calcMode="discrete"/></path><path opacity=".42" fill="#FFF" d="M415.294 623.651h35.038v4.056h-35.038z"><animate attributeName="fill" from="#FFFFFF" to="#ADD8E6" dur="5s" begin="0.8s" repeatCount="indefinite" fill="freeze" calcMode="discrete"/></path><path opacity=".42" fill="#FFF" d="M415.294 631.896h35.038v4.058h-35.038z"/><path opacity=".42" fill="#FFF" d="M415.294 640.143h35.038v4.055h-35.038z"><animate attributeName="fill" from="#FFFFFF" to="#FFFF00" dur="5s" begin="0.2s" repeatCount="indefinite" fill="freeze" calcMode="discrete"/></path><path opacity=".42" fill="#FFF" d="M415.294 648.385h35.038v4.057h-35.038z"><animate attributeName="fill" from="#FFFFFF" to="#FFFF00" dur="5s" begin="0.8s" repeatCount="indefinite" fill="freeze" calcMode="discrete"/></path><path opacity=".42" fill="#FFF" d="M415.294 656.631h35.038v4.055h-35.038z"><animate attributeName="fill" from="#FFFFFF" to="#ADD8E6" dur="5s" begin="0.8s" repeatCount="indefinite" fill="freeze" calcMode="discrete"/></path><path opacity=".42" fill="#FFF" d="M415.294 664.875h35.038v4.057h-35.038z"/><path opacity=".42" fill="#FFF" d="M415.294 673.122h35.038v4.057h-35.038z"><animate attributeName="fill" from="#FFFFFF" to="#FFFF00" dur="5s" begin="0.8s" repeatCount="indefinite" fill="freeze" calcMode="discrete"/></path><path opacity=".42" fill="#FFF" d="M95.836 629.831h35.038v4.06H95.836z"/><path opacity=".42" fill="#FFF" d="M95.836 638.078h35.038v4.057H95.836z"><animate attributeName="fill" from="#FFFFFF" to="#FFFF00" dur="5s" begin="0.4s" repeatCount="indefinite" fill="freeze" calcMode="discrete"/></path><path opacity=".42" fill="#FFF" d="M95.836 646.323h35.038v4.055H95.836zm0 8.246h35.038v4.055H95.836zm0 8.244h35.038v4.055H95.836z"/><path opacity=".42" fill="#FFF" d="M95.836 671.057h35.038v4.059H95.836z"><animate attributeName="fill" from="#FFFFFF" to="#ADD8E6" dur="5s" begin="0.8s" repeatCount="indefinite" fill="freeze" calcMode="discrete"/></path><path opacity=".42" fill="#FFF" d="M95.836 679.303h35.038v4.057H95.836z"><animate attributeName="fill" from="#FFFFFF" to="#FFFF00" dur="5s" begin="0.8s" repeatCount="indefinite" fill="freeze" calcMode="discrete"/></path><path opacity=".42" fill="#FFF" d="M95.836 687.547h35.038v4.057H95.836zm0 8.246h35.038v4.055H95.836zm319.458-14.425h35.038v4.055h-35.038zm0 8.242h35.038v4.057h-35.038zm0 8.246h35.038v4.057h-35.038zm0 8.246h35.038v4.055h-35.038zm0 8.246h35.038v4.055h-35.038zm0 8.244h35.038v4.055h-35.038zm0 8.242h35.038v4.061h-35.038z"/><path opacity=".42" fill="#FFF" d="M415.294 739.083h35.038v4.055h-35.038z"><animate attributeName="fill" from="#FFFFFF" to="#FFFF00" dur="5s" begin="0.2s" repeatCount="indefinite" fill="freeze" calcMode="discrete"/></path><path opacity=".42" fill="#FFF" d="M415.294 747.327h35.038v4.055h-35.038z"/><path opacity=".75" fill="#FFF" d="M988.254 673.081h6.181v8.242h-6.181zm0-12.368h6.181v8.246h-6.181zm-75.744-12.365h6.184v8.244h-6.184zm0 15.457h6.184v8.244h-6.184zm-9.273 0h6.18v8.244h-6.18zm0-17.004h6.18v8.244h-6.18z"/><path opacity=".75" fill="#FFF" d="M1303.586 657.624h6.187v8.242h-6.187z"><animate attributeName="fill" from="#FFFFFF" to="#FFFF00" dur="2s" begin="2s" repeatCount="indefinite" fill="freeze" calcMode="discrete"/></path><path opacity=".75" fill="#FFF" d="M1313.896 657.624h6.18v8.242h-6.18z"/><path opacity=".75" fill="#FFF" d="M1324.198 657.624h6.18v8.242h-6.18z"><animate attributeName="fill" from="#FFFFFF" to="#FFFF00" dur="2s" begin="2s" repeatCount="indefinite" fill="freeze" calcMode="discrete"/></path><path opacity=".75" fill="#FFF" d="M1314.928 643.195h6.184v8.245h-6.184z"><animate attributeName="fill" from="#FFFFFF" to="#FFFF00" dur="2s" begin="2s" repeatCount="indefinite" fill="freeze" calcMode="discrete"/></path><path opacity=".75" fill="#FFF" d="M1326.263 643.195h6.179v8.245h-6.179z"><animate attributeName="fill" from="#FFFFFF" to="#FFFF00" dur="2s" begin="2s" repeatCount="indefinite" fill="freeze" calcMode="discrete"/></path><path opacity=".75" fill="#FFF" d="M1337.601 643.195h6.184v8.245h-6.184zm-340.073 17.518h6.184v8.246h-6.184z"/><path opacity=".58" fill="#FFF" d="M191.963 666.379h4.057v34.008h-4.057zm7.729 0h4.057v34.008h-4.057zm7.728 0h4.059v34.008h-4.059zm7.73 0h4.057v34.008h-4.057z"/><path opacity=".58" fill="#FFF" d="M500.824 686.475h7.73v7.729h-7.73z"><animate attributeName="fill" from="#FFFFFF" to="#FFFF00" dur="4s" begin="2s" repeatCount="indefinite" fill="freeze" calcMode="discrete"/></path><path opacity=".58" fill="#FFF" d="M510.1 686.475h7.73v7.729h-7.73z"/><path opacity=".58" fill="#FFF" d="M524.012 686.475h7.728v7.729h-7.728z"><animate attributeName="fill" from="#FFFFFF" to="#FFFF00" dur="4s" begin="2s" repeatCount="indefinite" fill="freeze" calcMode="discrete"/></path><path opacity=".58" fill="#FFF" d="M500.051 710.436h7.73v7.729h-7.73z"><animate attributeName="fill" from="#FFFFFF" to="#FFFF00" dur="4s" begin="2s" repeatCount="indefinite" fill="freeze" calcMode="discrete"/></path><path opacity=".58" fill="#FFF" d="M518.602 710.436h7.728v7.729h-7.728z"/><path opacity=".58" fill="#FFF" d="M546.425 710.436h7.729v7.729h-7.729z"><animate attributeName="fill" from="#FFFFFF" to="#FFFF00" dur="4s" begin="2s" repeatCount="indefinite" fill="freeze" calcMode="discrete"/></path><path opacity=".58" fill="#FFF" d="M546.425 727.438h7.729v7.729h-7.729z"/><path opacity=".58" fill="#FFF" d="M561.882 727.438h7.729v7.729h-7.729z"><animate attributeName="fill" from="#FFFFFF" to="#FFFF00" dur="4s" begin="2s" repeatCount="indefinite" fill="freeze" calcMode="discrete"/></path><path opacity=".42" fill="#FFF" d="M46.373 549.42h2.061v212.281h-2.061zm-14.427 0h2.063v212.281h-2.063zm-14.426 0h2.061v212.281H17.52z"/></svg>